<svg width="17" height="17" viewBox="0 0 17 17" fill="none" xmlns="http://www.w3.org/2000/svg">
<g clip-path="url(#clip0_1_278)">
<path d="M8.49934 15.3337C5.20379 15.2902 2.54278 12.6292 2.49934 9.33367C2.54278 6.03812 5.20379 3.37711 8.49934 3.33367C11.7949 3.37711 14.4559 6.03812 14.4993 9.33367C14.4559 12.6292 11.7949 15.2902 8.49934 15.3337ZM8.49934 4.667C5.93612 4.70075 3.86642 6.77045 3.83268 9.33367C3.86642 11.8969 5.93612 13.9666 8.49934 14.0003C11.0626 13.9666 13.1323 11.8969 13.166 9.33367C13.1323 6.77045 11.0626 4.70075 8.49934 4.667ZM11.8327 10.0003H7.83268V6.00034H9.16601V8.667H11.8327V10.0003ZM14.0273 5.139L12.0213 3.139L12.9607 2.19434L14.9673 4.19434L14.0273 5.139ZM2.97068 5.139L2.02734 4.19434L4.02134 2.19434L4.96468 3.139L2.97201 5.139H2.97068Z" fill="#23A6F0"/>
</g>
<defs>
<clipPath id="clip0_1_278">
<rect width="16" height="16" fill="white" transform="translate(0.5 0.666992)"/>
</clipPath>
</defs>
</svg>
