<svg width="98" height="97" viewBox="0 0 98 97" fill="none" xmlns="http://www.w3.org/2000/svg">
<path d="M62.8738 24.9283C61.8799 24.3545 60.6089 24.6951 60.035 25.689C59.4612 26.6829 59.8018 27.9539 60.7957 28.5278C66.7508 31.9659 68.799 39.6072 65.3614 45.5614C64.7875 46.5553 65.1281 47.8263 66.122 48.4002C67.1159 48.974 68.3869 48.6334 68.9608 47.6395C73.5443 39.7007 70.8137 29.5125 62.8738 24.9283Z" fill="#FF9E2A"/>
<path d="M62.113 15.537C53.001 12.5415 42.6381 15.2649 36.1796 22.4449C30.726 28.5079 28.5266 36.4861 30.1452 44.3339C30.9366 48.1699 30.298 52.2618 28.3882 55.5698L26.31 59.1692C24.9274 61.564 25.3205 64.5037 27.0765 66.457C25.3615 71.07 27.0566 76.5573 31.5653 79.1604C36.0729 81.7629 41.673 80.4888 44.8113 76.6962C47.3809 77.2402 50.1233 76.1109 51.506 73.7159L53.5841 70.1165C55.4977 66.8021 58.7032 64.2458 62.6098 62.9185C68.328 60.976 73.1401 57.0257 76.1596 51.7958C84.0264 38.1702 77.5368 20.608 62.113 15.537ZM33.6434 75.5611C31.3299 74.2255 30.2206 71.4625 30.7068 68.8905L40.8885 74.7689C38.9043 76.476 35.9569 76.8968 33.6434 75.5611ZM47.9065 71.6379C47.3336 72.6303 46.0601 72.9715 45.0677 72.3986L30.6701 64.0861C29.6777 63.5132 29.3365 62.2397 29.9094 61.2473L30.9485 59.4476L48.9456 69.8382L47.9065 71.6379ZM61.2727 58.9834C57.1095 60.3978 53.5716 62.9593 51.1227 66.296L32.928 55.7913C34.5948 52.0005 35.0677 47.6242 34.216 43.4945C32.8669 36.954 34.709 30.2947 39.2697 25.2245C44.5938 19.3056 53.2521 16.9993 60.815 19.4855C73.7261 23.7295 79.1096 38.3738 72.5602 49.7177C70.0449 54.0744 66.0362 57.365 61.2727 58.9834Z" fill="#FF9E2A"/>
<path d="M29.2471 24.7111L25.6477 22.6329C24.6538 22.0591 23.3828 22.3997 22.809 23.3936C22.2351 24.3875 22.5757 25.6585 23.5696 26.2323L27.169 28.3105C28.1629 28.8843 29.4339 28.5437 30.0078 27.5498C30.5816 26.5559 30.2411 25.2849 29.2471 24.7111Z" fill="#FF9E2A"/>
<path d="M35.1881 16.1429L34.1124 12.1283C33.8155 11.0197 32.6759 10.3618 31.5673 10.6589C30.4586 10.9559 29.8008 12.0954 30.0978 13.204L31.1735 17.2186C31.4705 18.3272 32.61 18.9852 33.7187 18.688C34.8273 18.391 35.4852 17.2515 35.1881 16.1429Z" fill="#FF9E2A"/>
<path d="M24.1888 35.1944C23.8918 34.0858 22.7522 33.4279 21.6437 33.725L17.6291 34.8007C16.5205 35.0977 15.8626 36.2372 16.1596 37.3458C16.4566 38.4544 17.5961 39.1125 18.7048 38.8153L22.7194 37.7396C23.828 37.4425 24.4859 36.3031 24.1888 35.1944Z" fill="#FF9E2A"/>
<path d="M83.4785 56.0215L79.8791 53.9434C78.8851 53.3695 77.6141 53.7101 77.0403 54.704C76.4664 55.6979 76.807 56.9689 77.8009 57.5428L81.4003 59.6209C82.3943 60.1947 83.6653 59.8542 84.2391 58.8602C84.8129 57.8663 84.4724 56.5953 83.4785 56.0215Z" fill="#FF9E2A"/>
<path d="M90.8885 44.9082C90.5916 43.7996 89.452 43.1417 88.3434 43.4387L84.3288 44.5144C83.2202 44.8115 82.5623 45.9509 82.8594 47.0596C83.1564 48.168 84.2959 48.8261 85.4045 48.529L89.4191 47.4533C90.5277 47.1563 91.1856 46.0168 90.8885 44.9082Z" fill="#FF9E2A"/>
<path d="M76.9503 69.0496L75.8746 65.035C75.5777 63.9265 74.4381 63.2685 73.3295 63.5656C72.2208 63.8627 71.563 65.0021 71.86 66.1107L72.9357 70.1253C73.2328 71.2338 74.3723 71.8918 75.4809 71.5948C76.5895 71.2977 77.2474 70.1583 76.9503 69.0496Z" fill="#FF9E2A"/>
</svg>
